<?xml version="1.0" encoding="UTF-8"?>
<svg version="1.1" xmlns="http://www.w3.org/2000/svg" width="1587" height="986">
<path d="M0 0 C523.71 0 1047.42 0 1587 0 C1587 325.38 1587 650.76 1587 986 C1063.29 986 539.58 986 0 986 C0 660.62 0 335.24 0 0 Z " fill="#FEFEFE" transform="translate(0,0)"/>
<path d="M0 0 C2.32213687 0.02329863 4.64139224 0.0060741 6.96348953 -0.01597214 C22.06730024 -0.04395278 34.93366752 1.21593924 46.13435745 12.1085701 C49.70839778 15.79158609 52.97642012 19.71581918 56.18782425 23.71641922 C59.24018418 27.33134662 62.70211281 30.2790635 66.34700394 33.27354813 C67.6895986 34.50309446 69.02549855 35.74011278 70.34700394 36.99229813 C71.33700394 37.92622391 71.33700394 37.92622391 72.34700394 38.87901688 C73.68033727 40.14203771 75.0136706 41.40505854 76.34700394 42.66807938 C79.59459549 45.73172531 82.86537688 48.74031069 86.25325394 51.64854813 C91.89218666 56.54406687 97.04582782 61.92740931 102.28059769 67.24620438 C106.58072364 71.58814679 110.93049737 75.77751954 115.58919144 79.73448563 C117.42524916 81.34205616 119.13922787 83.03102377 120.84700394 84.77354813 C123.17725839 87.14578915 125.568048 89.3646833 128.09700394 91.52354813 C131.50538874 94.45634435 134.69099557 97.57427714 137.84700394 100.77354813 C140.92089913 103.88935055 144.01402608 106.9323211 147.34700394 109.77354813 C151.62280988 113.41849746 155.51902929 117.41357409 159.44075394 121.42979813 C161.59922469 123.59516251 163.85624525 125.60162028 166.17512894 127.59386063 C171.31874698 132.04469458 175.99368623 136.93393617 180.69856644 141.83995438 C181.37145706 142.52702469 182.04434769 143.214095 182.73762894 143.92198563 C183.3360762 144.54250809 183.93452347 145.16303055 184.5511055 145.80235672 C186.56133175 147.44912444 187.74934044 148.11473058 190.34700394 148.27354813 C192.05592003 147.23879875 192.05592003 147.23879875 193.51887894 145.55479813 C194.09654007 144.95586746 194.6742012 144.3569368 195.26936722 143.73985672 C195.87248734 143.09097488 196.47560745 142.44209305 197.09700394 141.77354813 C198.35817212 140.46186846 199.62117562 139.15195082 200.88606644 137.84386063 C201.48838089 137.21640945 202.09069534 136.58895828 202.71126175 135.94249344 C204.5479346 134.06853887 206.46278887 132.33561057 208.47200394 130.64854813 C212.47707451 127.26228674 216.12667196 123.551179 219.78499222 119.79845047 C223.1351165 116.3891327 226.64476559 113.23088908 230.25862503 110.10362625 C233.80532659 106.99559786 237.23042738 103.76017047 240.65950394 100.52354813 C241.39934525 99.82689041 242.13918655 99.1302327 242.9014473 98.41246414 C248.03232887 93.56312469 253.03733491 88.61184061 257.99934769 83.58995438 C260.69257089 80.93258106 263.50905218 78.47000493 266.38606644 76.01573563 C268.63332279 74.01916923 270.73595321 71.91341866 272.84700394 69.77354813 C275.49430827 67.09028719 278.15797337 64.52097912 281.03450394 62.08604813 C285.01259742 58.6819481 288.66700732 54.99228155 292.34700394 51.27354813 C296.55626475 47.02007239 300.78725119 42.90974156 305.35872269 39.04307938 C308.46907179 36.27492978 311.35627379 33.28460872 314.27913284 30.32188797 C317.4972665 27.07696444 320.83154634 24.05523422 324.30794144 21.09386063 C327.6766769 18.08652207 330.80139317 14.83810845 333.95247269 11.60557938 C357.97413397 -11.78908912 400.81566449 5.27354813 434.34700394 5.27354813 C434.34700394 81.83354813 434.34700394 158.39354813 434.34700394 237.27354813 C454.14700394 237.27354813 473.94700394 237.27354813 494.34700394 237.27354813 C490.47991212 241.78515524 486.6721252 246.10684958 482.47200394 250.27354813 C481.99376175 250.7556575 481.51551956 251.23776688 481.02278519 251.73448563 C478.92247533 253.82925377 476.83242625 255.87611681 474.53531265 257.75683975 C468.97451795 262.31083684 465.33994613 267.24834413 461.22591019 273.14464188 C451.90950394 284.71104813 451.90950394 284.71104813 426.34700394 305.27354813 C399.61700394 305.27354813 372.88700394 305.27354813 345.34700394 305.27354813 C345.34700394 242.90354813 345.34700394 180.53354813 345.34700394 116.27354813 C336.8980162 123.02466171 336.8980162 123.02466171 328.90950394 130.21104813 C325.0172733 133.86492046 321.08141431 137.37351983 316.90950394 140.71104813 C312.53444883 144.2200079 308.42708721 147.9322694 304.34700394 151.77354813 C299.42261863 156.40438735 294.39275015 160.80277258 289.12044144 165.03917313 C281.07676261 171.51943269 273.29166661 178.25783338 265.72615433 185.28868484 C261.67111296 189.03416576 257.43162874 192.49900818 253.13216019 195.95714188 C250.08704805 198.48975267 247.18215706 201.13791463 244.28450394 203.83604813 C240.78835139 207.09147101 237.24561257 210.21489166 233.47200394 213.14854813 C228.58426112 216.96930375 224.11444851 221.16091231 219.60506058 225.41222 C215.14591097 229.59331921 210.527237 233.45436168 205.75325394 237.27354813 C202.91167857 239.635377 200.34796783 242.18773986 197.76887894 244.82823563 C196.05738598 246.56794 194.49330993 248.0893793 192.34700394 249.27354813 C188.53470877 248.86884588 186.67614814 246.9919424 183.97200394 244.39854813 C179.9320077 240.64414809 175.7750482 237.19443335 171.40950394 233.83604813 C166.03036942 229.68007036 160.97245395 225.29580435 155.98762894 220.66807938 C153.3646915 218.28958729 150.66824417 216.05486349 147.90950394 213.83604813 C143.91473693 210.61409522 140.10170969 207.26674711 136.34700394 203.77354813 C131.7918857 199.54030252 127.09454227 195.54688721 122.25325394 191.64464188 C118.94702064 188.94721767 115.70563152 186.18219874 112.47200394 183.39854813 C107.94670183 179.50378049 103.40997203 175.62413943 98.84700394 171.77354813 C94.3528093 167.97843526 89.87436016 164.16563788 85.40950394 160.33604813 C84.83031204 159.83935623 84.25112015 159.34266434 83.65437698 158.83092117 C80.67944352 156.27844394 77.70723313 153.72284831 74.73762894 151.16417313 C69.40579759 146.57518902 64.06370723 142.01476978 58.59700394 137.58604813 C54.30025463 134.10083712 50.18005651 130.4694902 46.12434769 126.70714188 C41.98868452 123.08334701 37.64075997 119.70855296 33.34700394 116.27354813 C32.85200394 209.82854813 32.85200394 209.82854813 32.34700394 305.27354813 C3.30700394 305.27354813 -25.73299606 305.27354813 -55.65299606 305.27354813 C-55.6932991 259.49825748 -55.6932991 259.49825748 -55.70182419 240.10557938 C-55.70772501 226.79063399 -55.71460694 213.47569499 -55.72843552 200.16075516 C-55.73850823 190.45742089 -55.74487891 180.75409187 -55.74708456 171.05075252 C-55.74837066 165.92889623 -55.7513192 160.80705495 -55.75872612 155.68520355 C-55.79235317 131.52088446 -55.49173366 107.42570826 -54.65299606 83.27354813 C-74.12299606 83.27354813 -93.59299606 83.27354813 -113.65299606 83.27354813 C-106.89119985 75.38478587 -106.89119985 75.38478587 -103.19205856 71.67979813 C-102.39026169 70.87671219 -101.58846481 70.07362625 -100.76237106 69.24620438 C-99.94252731 68.43022781 -99.12268356 67.61425125 -98.27799606 66.77354813 C-97.46588669 65.95757156 -96.65377731 65.141595 -95.81705856 64.30089188 C-95.01268356 63.49780594 -94.20830856 62.69472 -93.37955856 61.86729813 C-92.66364548 61.15251297 -91.94773239 60.43772781 -91.21012497 59.7012825 C-89.80057548 58.36305831 -88.37134403 57.04179922 -86.87047958 55.80685806 C-82.0349278 51.80276936 -78.32134166 47.47380141 -74.54604721 42.46808243 C-53.88878487 15.35819509 -35.21327198 -0.409752 0 0 Z " fill="#D2AC67" transform="translate(561.6529960632324,119.7264518737793)"/>
</svg>
