<?xml version="1.0" encoding="UTF-8"?>
<svg version="1.1" xmlns="http://www.w3.org/2000/svg" width="1333" height="560">
<path d="M0 0 C439.89 0 879.78 0 1333 0 C1333 184.8 1333 369.6 1333 560 C893.11 560 453.22 560 0 560 C0 375.2 0 190.4 0 0 Z " fill="#FEFEFE" transform="translate(0,0)"/>
<path d="M0 0 C4.73439808 0.00928047 9.46755246 -0.06760862 14.20140553 -0.13263059 C23.46606395 -0.24536795 32.72921006 -0.27574619 41.99448837 -0.2737412 C49.53514424 -0.27266743 57.07532056 -0.29650324 64.61586094 -0.33772016 C88.37133388 -0.46500321 112.12532819 -0.50252501 135.88109975 -0.47372465 C154.56808056 -0.45459144 173.25119839 -0.57424001 191.93718286 -0.75837953 C211.16745244 -0.94638432 230.39586319 -1.03265919 249.62707174 -1.0136658 C260.40679516 -1.00497769 271.18275094 -1.03631396 281.96166325 -1.17641187 C291.14693193 -1.29490316 300.3265363 -1.31721119 309.51215495 -1.22045656 C314.18972112 -1.17378923 318.85664375 -1.16809375 323.53325558 -1.28364301 C340.06494886 -1.66638698 354.12787378 -1.79798681 366.85571175 9.87654907 C372.06159461 14.94115193 376.7189404 20.44749063 381.27656341 26.09280586 C384.47454856 29.90420656 387.9686797 33.02896936 391.83063221 36.13677859 C393.998634 38.07122496 396.13419266 40.03986838 398.26813221 42.01177859 C399.10380726 42.78267825 399.10380726 42.78267825 399.95636463 43.56915164 C404.01039298 47.32880882 407.92561582 51.20696052 411.80719471 55.14459109 C413.6524281 56.96132667 415.54414336 58.65013615 417.51813221 60.32427859 C421.49622615 63.72837902 425.1506306 67.41805031 428.83063221 71.13677859 C432.99708936 75.34689786 437.18348639 79.40919084 441.70953846 83.23443484 C445.30646871 86.46041096 448.65297407 89.94005345 452.04913807 93.3748157 C455.51114237 96.86097001 459.05910142 100.15332843 462.80719471 103.33209109 C465.92778485 106.11532014 468.82940975 109.11511047 471.76471424 112.09039187 C474.37000728 114.71734305 477.01534206 117.23685912 479.83063221 119.63677859 C483.67869069 122.91709074 487.20779019 126.48483661 490.7554369 130.08111453 C494.03444155 133.38750127 497.4310674 136.47919539 500.97125721 139.50005984 C504.07200213 142.22949707 506.9516113 145.17678522 509.83063221 148.13677859 C513.48528207 146.60285071 515.77457221 144.41050079 518.53375721 141.59380984 C519.43223377 140.68437625 520.33071033 139.77494266 521.25641346 138.83795047 C522.19820152 137.87543328 523.13960576 136.9125404 524.08063221 135.94927859 C529.62965113 130.29489855 535.15338352 124.71584169 541.1773119 119.56524539 C543.16397604 117.84876992 545.00746285 116.02506114 546.83063221 114.13677859 C550.03092743 110.88647876 553.37287797 107.88953614 556.83063221 104.91802859 C558.91400299 103.06252649 560.87344428 101.12454759 562.83063221 99.13677859 C565.3501861 96.578086 567.91182003 94.15507249 570.64313221 91.82427859 C574.97321285 88.10670445 578.94072003 84.06018263 582.92438221 79.98052859 C585.06884505 77.82999079 587.30876432 75.83484179 589.61188221 73.85552859 C594.24916785 69.84005085 598.5319671 65.50879976 602.83063221 61.13677859 C607.73740789 56.14626953 612.6820773 51.316304 617.99078846 46.75396609 C620.73573086 44.34121417 623.28087789 41.75238893 625.83063221 39.13677859 C629.7218108 35.19186963 633.68253212 31.43671469 637.90485096 27.84380984 C640.94724916 25.14699846 643.7538903 22.22143463 646.60797596 19.32818484 C648.64269171 17.32207669 650.72648658 15.43564343 652.89313221 13.57427859 C657.0445117 9.95005841 660.93390771 6.03350309 664.83063221 2.13677859 C696.18063221 2.13677859 727.53063221 2.13677859 759.83063221 2.13677859 C759.83063221 79.68677859 759.83063221 157.23677859 759.83063221 237.13677859 C797.90900887 237.09750597 797.90900887 237.09750597 835.98737049 237.0466907 C864.01307527 237.02190148 892.01121028 237.2320423 920.02878857 237.94875979 C929.2899405 238.18189946 938.55183297 238.32837892 947.81500721 238.45318484 C948.62064043 238.46404243 949.42627365 238.47490001 950.25632 238.48608661 C956.03102805 238.56263648 961.80580856 238.63208739 967.58063221 238.69927859 C968.44581848 238.7094715 969.31100475 238.71966441 970.20240879 238.7301662 C998.36280241 239.06034967 1026.5231998 239.2665428 1054.68550587 239.31800342 C1057.37554085 239.32423782 1060.06553933 239.3341243 1062.75555897 239.34506106 C1066.9767067 239.36166208 1071.19774643 239.36787813 1075.41892529 239.36603808 C1076.95865581 239.36682935 1078.49838901 239.37090212 1080.03810024 239.37864947 C1092.73012757 239.43799279 1104.52959643 239.36680193 1114.83063221 231.13677859 C1120.99321699 224.51074739 1122.14091064 219.32389297 1122.04156971 210.36334109 C1121.62580333 204.00365538 1118.9345779 199.47895124 1114.70953846 194.77740359 C1107.87062992 188.80579946 1100.13670068 186.98721532 1091.32921314 186.99201846 C1090.19074152 186.98672819 1090.19074152 186.98672819 1089.02927047 186.98133105 C1086.48347797 186.97064909 1083.93772292 186.96696368 1081.39191151 186.96319461 C1079.56659252 186.95688808 1077.74127507 186.95012216 1075.91595936 186.94293094 C1071.98020403 186.92825527 1068.04445465 186.91653191 1064.10868359 186.90698314 C1057.86410109 186.89149807 1051.6195688 186.86754173 1045.37502003 186.8420856 C1027.61522074 186.77099298 1009.85539137 186.71143126 992.09552479 186.65997195 C982.29005479 186.63148515 972.48463348 186.59599611 962.67921478 186.5533182 C957.5002056 186.53112277 952.32124083 186.51252844 947.14219189 186.50286937 C903.19768929 186.41740779 862.81882619 185.88829183 829.51813221 153.38677859 C814.2164707 137.9204696 804.51726939 117.55807529 804.39313221 95.63677859 C804.57505668 82.39776034 806.87431946 70.06572277 812.83063221 58.13677859 C813.31145252 57.16353641 813.79227283 56.19029422 814.28766346 55.18755984 C827.28555996 30.99439483 853.3220298 14.38809023 879.01813221 6.32427859 C884.93964185 4.64988359 890.78150175 3.60379016 896.90271473 3.01425052 C897.76258149 2.93078785 898.62244826 2.84732518 899.50837159 2.76133335 C910.1598924 1.81853451 920.80545831 1.87234221 931.4898119 1.90972781 C933.78829919 1.91029349 936.08678685 1.90997232 938.38527393 1.9088428 C944.55954502 1.9082744 950.7337367 1.91994478 956.9079895 1.93399072 C963.38482404 1.94658444 969.86166085 1.94767533 976.33850574 1.95004153 C987.18827175 1.95553007 998.03800879 1.96797994 1008.88776112 1.98589969 C1020.0521477 2.00431967 1031.21652642 2.01844603 1042.38092518 2.02691531 C1043.07164068 2.02744076 1043.76235618 2.02796621 1044.47400245 2.02850758 C1047.93987832 2.03111807 1051.40575424 2.03364538 1054.87163019 2.03613138 C1083.52465024 2.05679077 1112.17764009 2.09210253 1140.83063221 2.13677859 C1138.58755218 5.53914602 1136.43956892 8.77132737 1133.62360096 11.72271609 C1133.04070301 12.33912967 1132.45780506 12.95554324 1131.85724354 13.59063601 C1131.2503368 14.22461307 1130.64343006 14.85859012 1130.01813221 15.51177859 C1128.75421413 16.84817016 1127.49118167 18.18539992 1126.22906971 19.52349734 C1125.63320057 20.1543323 1125.03733143 20.78516726 1124.42340565 21.43511844 C1122.08041512 23.93828275 1119.83617113 26.51894982 1117.60016346 29.11724734 C1115.22178724 31.8316414 1112.77550867 34.48246985 1110.33063221 37.13677859 C1106.68638451 41.09530199 1103.09149255 45.08854906 1099.56500721 49.15240359 C1096.03562011 53.19053118 1092.42364179 57.15533555 1088.83063221 61.13677859 C1088.27538585 61.93824156 1087.72013948 62.73970452 1087.14806747 63.56545424 C1084.04407952 67.68407853 1081.59691903 70.65049263 1076.51497555 72.04962993 C1072.46472494 72.37167982 1068.52054616 72.38470792 1064.46368885 72.28448367 C1062.92195314 72.28333813 1061.38020862 72.2866757 1059.83849049 72.29412723 C1056.53269944 72.30064418 1053.22918141 72.27592696 1049.92375851 72.22644877 C1044.69023517 72.14846854 1039.4580641 72.14197566 1034.22404957 72.14475894 C1025.94138148 72.14088965 1017.65977133 72.09051214 1009.37742943 72.01964229 C994.55606203 71.89319271 979.73458162 71.82267197 964.91269106 71.80400652 C959.71742734 71.79532288 954.52333335 71.75886151 949.32841027 71.69949853 C946.08844121 71.66695996 942.84861131 71.65491818 939.60849667 71.64777255 C938.11455116 71.64009411 936.6206192 71.62381787 935.12687778 71.59795833 C925.05708692 71.42899604 917.20783828 72.4986198 909.35797596 79.26959109 C908.83332752 79.92701297 908.30867908 80.58443484 907.76813221 81.26177859 C907.22028065 81.92435672 906.67242908 82.58693484 906.10797596 83.26959109 C902.70876387 88.23846993 903.32594586 94.38042843 903.83063221 100.13677859 C905.38303152 106.0991785 908.81457196 109.40964227 913.73297596 112.91021609 C918.59702432 115.754371 922.45653183 116.38897091 928.09717274 116.40179324 C928.81884514 116.40617451 929.54051754 116.41055578 930.28405881 116.41506982 C932.69775867 116.42737157 935.1112406 116.42558282 937.52496815 116.42388797 C939.25852244 116.42991435 940.9920738 116.43683915 942.72562122 116.44459414 C946.46056189 116.4594851 950.19544908 116.46823333 953.93041706 116.47230411 C959.86060844 116.47903788 965.79068687 116.50082423 971.72082996 116.52484012 C984.34073743 116.57382033 996.96066922 116.606026 1009.58063221 116.63677859 C1023.13907161 116.66995057 1036.69746687 116.70634602 1050.25583959 116.76090932 C1055.17221387 116.78023229 1060.08853052 116.7955944 1065.00494099 116.80125308 C1123.12400551 116.8709002 1123.12400551 116.8709002 1142.83063221 124.13677859 C1143.47677479 124.36381473 1144.12291737 124.59085086 1144.78864002 124.82476687 C1158.36648147 129.62073433 1169.9025255 136.81951508 1180.83063221 146.13677859 C1181.58989002 146.76197391 1182.34914783 147.38716922 1183.13141346 148.03130984 C1201.09310855 163.26307546 1210.70526638 183.28030592 1213.07623768 206.54693484 C1214.60972872 228.82793865 1206.74091321 251.12333899 1192.25104237 267.97369266 C1172.31095043 290.0428509 1144.60367202 305.00695618 1114.63717377 307.30498765 C1109.07200125 307.56625382 1103.5064463 307.52715233 1097.93671131 307.49754214 C1096.07911532 307.49885331 1094.22151988 307.50148543 1092.36392736 307.50530964 C1087.30350092 307.51196545 1082.24326772 307.50009015 1077.18286586 307.48497546 C1071.7093404 307.47194794 1066.23582471 307.47640928 1060.76228809 307.47868228 C1051.293624 307.48025079 1041.82502221 307.47088587 1032.35637379 307.45396876 C1018.66652308 307.42952587 1004.97670232 307.42176809 991.28683215 307.41800479 C969.0727376 307.41144859 946.85867315 307.39153593 924.64459705 307.36309695 C903.07330973 307.3355129 881.50203131 307.31427716 859.93072987 307.30157351 C859.26499129 307.30117894 858.59925272 307.30078436 857.91334025 307.30037782 C850.56382611 307.29602948 843.21431187 307.29185404 835.86479759 307.28774941 C780.52004634 307.2566794 725.17535646 307.20139029 669.83063221 307.13677859 C669.83063221 243.77677859 669.83063221 180.41677859 669.83063221 115.13677859 C665.0418217 118.72838648 660.80244709 121.93148408 656.51813221 125.94927859 C652.89978818 129.28852171 649.23024254 132.48910919 645.39313221 135.57427859 C640.85746778 139.23248874 636.57362051 143.08420825 632.3113451 147.05059695 C628.22402215 150.83168418 623.95019977 154.33367825 619.61188221 157.82427859 C616.05878135 160.77854223 612.69039541 163.90591283 609.30890369 167.05303836 C606.0976417 170.02393488 602.80435406 172.83638936 599.39313221 175.57427859 C595.20825422 178.94024521 591.24752757 182.468575 587.33063221 186.13677859 C582.52864839 190.6331559 577.58550761 194.86114837 572.45563221 198.98443484 C568.91967039 201.88371306 565.54354145 204.94219349 562.16266346 208.01959109 C559.43506276 210.49590529 556.66101666 212.91456045 553.88141346 215.33209109 C551.56974424 217.36636 549.29531791 219.43900169 547.01813221 221.51177859 C543.64122239 224.56536726 540.19846089 227.48107064 536.64313221 230.32427859 C533.28103494 233.02450793 530.09214832 235.80067871 526.97516346 238.78130984 C525.97682484 239.73517581 525.97682484 239.73517581 524.95831776 240.7083118 C523.64522156 241.97274516 522.34034215 243.24577975 521.04474354 244.52813601 C518.57406378 246.9092244 516.395443 248.8530556 513.31891346 250.39849734 C509.17318632 249.96244755 506.84720802 247.2249719 503.89313221 244.44927859 C502.55640581 243.24167904 501.21915403 242.03466083 499.88141346 240.82818484 C498.86941883 239.90223514 498.86941883 239.90223514 497.83697987 238.95757937 C494.80420139 236.20527202 491.69647584 233.54420622 488.58063221 230.88677859 C488.00071522 230.38895877 487.42079823 229.89113894 486.82330799 229.37823367 C483.35114997 226.4044174 479.83020493 223.50293262 476.26813221 220.63677859 C472.13437239 217.28606579 468.21438089 213.76900831 464.33063221 210.13677859 C459.58164323 205.69570411 454.71357917 201.48964148 449.64313221 197.41412234 C446.49829752 194.86767981 443.41187473 192.2594302 440.33063221 189.63677859 C436.30576803 186.21306514 432.25035584 182.83694977 428.14313221 179.51177859 C423.74980299 175.93862227 419.54642191 172.20053629 415.36188221 168.38677859 C412.74218411 166.05815806 410.05547911 163.84114912 407.33063221 161.63677859 C402.86787007 158.02645417 398.60343688 154.25249931 394.36188221 150.38677859 C391.74218411 148.05815806 389.05547911 145.84114912 386.33063221 143.63677859 C382.73585571 140.72864479 379.24802593 137.75136528 375.83063221 134.63677859 C371.533101 130.72185747 367.09511468 127.02212031 362.56891346 123.37505984 C359.2769147 120.68416785 356.05887089 117.90384031 352.83063221 115.13677859 C352.50063221 178.49677859 352.17063221 241.85677859 351.83063221 307.13677859 C322.13063221 307.13677859 292.43063221 307.13677859 261.83063221 307.13677859 C261.79032918 262.06455199 261.79032918 262.06455199 261.78180408 242.92388797 C261.77591041 229.79815149 261.7690494 216.67242151 261.75519276 203.5466907 C261.74509823 193.97991359 261.73874442 184.41314184 261.73654372 174.84635955 C261.73526115 169.79979708 261.73233692 164.75324992 261.72490215 159.70669246 C261.68823309 133.83332012 262.01854887 107.9979569 262.83063221 82.13677859 C261.9795715 82.15557071 261.9795715 82.15557071 261.11131763 82.17474246 C214.00335654 83.20088353 166.96520464 83.13677859 119.83063221 83.13677859 C119.83063221 157.05677859 119.83063221 230.97677859 119.83063221 307.13677859 C87.82063221 307.13677859 55.81063221 307.13677859 22.83063221 307.13677859 C22.83063221 232.88677859 22.83063221 158.63677859 22.83063221 82.13677859 C-19.07936779 82.13677859 -60.98936779 82.13677859 -104.16936779 82.13677859 C-100.40318139 77.11519673 -97.3206569 73.14626125 -92.94671154 68.90630984 C-90.51397642 66.48426806 -88.29358249 63.90296469 -86.05218029 61.30474734 C-83.95361459 58.88834908 -81.81497079 56.51148835 -79.66936779 54.13677859 C-76.39863856 50.51245701 -73.16767559 46.85794682 -69.96233654 43.17584109 C-67.99095736 40.93388046 -65.98774088 38.72292057 -63.98186779 36.51177859 C-60.94208946 33.14281953 -57.94271784 29.74538521 -55.00194895 26.28994787 C-53.98844466 25.1111608 -52.96331015 23.94221458 -51.92372644 22.78636181 C-49.21294582 19.7339553 -46.91423209 16.83787281 -45.01393604 13.21634746 C-35.61066444 -3.00262682 -16.41223748 -0.08825447 0 0 Z " fill="#D2AC67" transform="translate(114.16936779022217,11.863221406936646)"/>
<path d="M0 0 C2.29848729 0.00056568 4.59697495 0.00024451 6.89546204 -0.00088501 C13.06973312 -0.00145342 19.2439248 0.01021697 25.4181776 0.02426291 C31.89501214 0.03685662 38.37184896 0.03794752 44.84869385 0.04031372 C55.69845985 0.04580226 66.54819689 0.05825213 77.39794922 0.07617188 C88.5623358 0.09459185 99.72671453 0.10871822 110.89111328 0.1171875 C111.58182878 0.11771295 112.27254428 0.11823839 112.98419055 0.11877976 C116.45006642 0.12139025 119.91594234 0.12391757 123.38181829 0.12640357 C152.03483834 0.14706296 180.68782819 0.18237472 209.34082031 0.22705078 C207.09774028 3.62941821 204.94975702 6.86159956 202.13378906 9.81298828 C201.25944214 10.73760864 201.25944214 10.73760864 200.36743164 11.6809082 C199.7605249 12.31488525 199.15361816 12.9488623 198.52832031 13.60205078 C197.26440223 14.93844234 196.00136978 16.27567211 194.73925781 17.61376953 C194.14338867 18.24460449 193.54751953 18.87543945 192.93359375 19.52539062 C190.59060322 22.02855494 188.34635924 24.60922201 186.11035156 27.20751953 C183.73197534 29.92191359 181.28569678 32.57274204 178.84082031 35.22705078 C175.19657262 39.18557418 171.60168065 43.17882125 168.07519531 47.24267578 C164.54580821 51.28080336 160.93382989 55.24560774 157.34082031 59.22705078 C156.78557395 60.02851375 156.23032759 60.82997671 155.65825558 61.65572643 C152.55426763 65.77435072 150.10710713 68.74076482 145.02516365 70.13990211 C140.97491304 70.46195201 137.03073426 70.47498011 132.97387695 70.37475586 C131.43214124 70.37361032 129.89039672 70.37694788 128.34867859 70.38439941 C125.04288754 70.39091637 121.73936951 70.36619915 118.43394661 70.31672096 C113.20042327 70.23874073 107.96825221 70.23224785 102.73423767 70.23503113 C94.45156959 70.23116183 86.16995944 70.18078432 77.88761753 70.10991448 C63.06625013 69.9834649 48.24476972 69.91294416 33.42287916 69.89427871 C28.22761544 69.88559507 23.03352146 69.8491337 17.83859837 69.78977072 C14.59862931 69.75723215 11.35879941 69.74519037 8.11868477 69.73804474 C6.62473926 69.7303663 5.13080731 69.71409006 3.63706589 69.68823051 C-6.43272497 69.51926823 -14.28197362 70.58889199 -22.13183594 77.35986328 C-22.65648437 78.01728516 -23.18113281 78.67470703 -23.72167969 79.35205078 C-24.26953125 80.01462891 -24.81738281 80.67720703 -25.38183594 81.35986328 C-28.78104803 86.32874212 -28.16386604 92.47070062 -27.65917969 98.22705078 C-26.10678037 104.18945069 -22.67523994 107.49991446 -17.75683594 111.00048828 C-12.89278757 113.84464319 -9.03328006 114.4792431 -3.39263916 114.49206543 C-2.67096676 114.4964467 -1.94929435 114.50082797 -1.20575309 114.50534201 C1.20794677 114.51764376 3.62142871 114.51585501 6.03515625 114.51416016 C7.76871054 114.52018654 9.50226191 114.52711134 11.23580933 114.53486633 C14.97075 114.54975729 18.70563719 114.55850551 22.44060516 114.56257629 C28.37079654 114.56931007 34.30087498 114.59109642 40.23101807 114.6151123 C52.85092554 114.66409252 65.47085733 114.69629819 78.09082031 114.72705078 C91.64925971 114.76022276 105.20765498 114.79661821 118.76602769 114.85118151 C123.68240197 114.87050448 128.59871862 114.88586659 133.51512909 114.89152527 C191.63419361 114.96117239 191.63419361 114.96117239 211.34082031 122.22705078 C211.98696289 122.45408691 212.63310547 122.68112305 213.29882812 122.91503906 C226.87666957 127.71100652 238.4127136 134.90978727 249.34082031 144.22705078 C250.10007812 144.85224609 250.85933594 145.47744141 251.64160156 146.12158203 C269.60329666 161.35334765 279.21545448 181.37057811 281.58642578 204.63720703 C283.11991682 226.91821084 275.25110131 249.21361118 260.76123047 266.06396484 C240.30652712 288.70268118 212.14386535 303.34363196 181.47410202 305.49876058 C177.48815178 305.60048016 173.5085408 305.61386183 169.52197266 305.58781433 C167.9984852 305.58912656 166.47499843 305.59176062 164.9515152 305.59558183 C160.81459952 305.60221686 156.67792158 305.59039191 152.54103613 305.57524765 C148.06138527 305.56218934 143.58174586 305.56668361 139.1020813 305.56895447 C131.35716624 305.57052106 123.6123275 305.56117641 115.86743164 305.54424095 C104.66987646 305.51977175 93.47235786 305.51203761 82.27477884 305.50827698 C64.10373794 305.50172487 45.93273763 305.4817975 27.76171875 305.45336914 C10.11914268 305.42579637 -7.52342233 305.40457857 -25.16601562 305.3918457 C-26.25505243 305.39105753 -27.34408924 305.39026936 -28.46612716 305.38945731 C-33.92996702 305.38554195 -39.39380695 305.38175089 -44.85764694 305.3780216 C-90.12485263 305.34696435 -135.39201405 305.2941625 -180.65917969 305.22705078 C-179.72562089 304.1205495 -178.78952553 303.01618809 -177.85240173 301.91270447 C-177.33139358 301.29747893 -176.81038542 300.6822534 -176.27358913 300.04838467 C-173.75839983 297.21081486 -170.97361414 294.70780183 -168.16308594 292.16845703 C-161.61216986 286.14799379 -155.27896982 279.93134613 -148.99902344 273.62939453 C-148.07167389 272.69882233 -147.14432434 271.76825012 -146.18887329 270.80947876 C-143.32237021 267.93025657 -140.45928213 265.04765034 -137.59667969 262.16455078 C-134.69378761 259.24112222 -131.79020116 256.31840255 -128.88270569 253.39955139 C-127.0895027 251.59888966 -125.29855186 249.79598132 -123.51023865 247.99046326 C-122.29220299 246.76747276 -122.29220299 246.76747276 -121.04956055 245.51977539 C-120.34423691 244.80921494 -119.63891327 244.09865448 -118.91221619 243.36656189 C-118.16871414 242.66052322 -117.4252121 241.95448456 -116.65917969 241.22705078 C-115.76776779 240.32554794 -114.8763559 239.4240451 -113.95793152 238.495224 C-110.08975626 235.34299719 -106.30677817 235.55024283 -101.48876953 235.64355469 C-100.57735734 235.64124092 -99.66594515 235.63892715 -98.72691441 235.63654327 C-95.690746 235.63497868 -92.65607471 235.66920932 -89.62011719 235.70361328 C-87.46058165 235.71009383 -85.30103875 235.7144306 -83.14149475 235.71676636 C-77.31842069 235.72952634 -71.49596344 235.77366344 -65.67310715 235.82382202 C-59.56966349 235.87116912 -53.46612413 235.88980131 -47.36254883 235.91259766 C-15.75412972 236.04628414 15.85306802 236.39891413 47.4587183 236.82937717 C71.77424941 237.16002176 96.08785293 237.3655069 120.4057312 237.40429688 C124.03135017 237.41010399 127.65690728 237.42044083 131.28250122 237.43505859 C135.49934375 237.45162561 139.7160792 237.45795931 143.93295288 237.45624733 C145.47105458 237.45708026 147.00915883 237.46118443 148.54724121 237.46893883 C161.23959086 237.52826944 173.03949971 237.45730168 183.34082031 229.22705078 C189.50340509 222.60101958 190.65109874 217.41416516 190.55175781 208.45361328 C190.13599143 202.09392757 187.44476601 197.56922343 183.21972656 192.86767578 C176.38081802 186.89607165 168.64688878 185.07748751 159.83940125 185.08229065 C158.70092962 185.07700038 158.70092962 185.07700038 157.53945857 185.07160324 C154.99366608 185.06092128 152.44791102 185.05723587 149.90209961 185.0534668 C148.07678062 185.04716026 146.25146318 185.04039435 144.42614746 185.03320312 C140.49039213 185.01852746 136.55464275 185.0068041 132.61887169 184.99725533 C126.37428919 184.98177026 120.1297569 184.95781392 113.88520813 184.93235779 C96.12540885 184.86126517 78.36557947 184.80170345 60.60571289 184.75024414 C50.80024289 184.72175734 40.99482158 184.6862683 31.18940288 184.64359039 C26.0103937 184.62139495 20.83142893 184.60280063 15.65237999 184.59314156 C-28.29212261 184.50767998 -68.67098571 183.97856402 -101.97167969 151.47705078 C-117.2733412 136.01074179 -126.9725425 115.64834748 -127.09667969 93.72705078 C-126.91475522 80.48803253 -124.61549244 68.15599495 -118.65917969 56.22705078 C-117.93794922 54.7671875 -117.93794922 54.7671875 -117.20214844 53.27783203 C-104.20425194 29.08466702 -78.1677821 12.47836242 -52.47167969 4.41455078 C-46.55017005 2.74015577 -40.70831015 1.69406235 -34.58709717 1.10452271 C-33.29729702 0.97932871 -33.29729702 0.97932871 -31.98144031 0.85160553 C-21.3299195 -0.0911933 -10.68435359 -0.0373856 0 0 Z " fill="#231F20" transform="translate(1045.6591796875,13.77294921875)"/>
<path d="M0 0 C3.88049689 0.0652385 7.7606586 0.04282492 11.64155018 0.03146589 C18.35282373 0.0236286 25.06189735 0.0703831 31.77261746 0.15503347 C41.47459374 0.27733598 51.17551449 0.31604409 60.87817802 0.33485334 C76.62230188 0.36762209 92.36525501 0.46727715 108.10874379 0.60939252 C123.39514285 0.74723764 138.68122307 0.85333436 153.96811879 0.91700971 C154.91158098 0.92095056 155.85504317 0.92489142 156.82709513 0.92895169 C161.56052547 0.94852832 166.29395806 0.96748369 171.02739215 0.98613024 C210.24942054 1.14144143 249.47014235 1.40546955 288.69101918 1.74098432 C287.74542329 2.85235691 286.7986485 3.96272649 285.85138714 5.07267988 C285.32428045 5.69112586 284.79717375 6.30957185 284.25409412 6.94675863 C282.11450481 9.40275482 279.84878639 11.71045916 277.54697621 14.01442182 C277.07127186 14.49187849 276.59556752 14.96933515 276.10544789 15.4612602 C274.55572161 17.0153334 273.00243046 18.5657832 271.44883168 20.11598432 C270.35541414 21.21007707 269.26214495 22.30431808 268.169016 23.39869916 C265.8861411 25.68304146 263.60148554 27.96558344 261.3155309 30.2468437 C258.40516181 33.15152291 255.4992973 36.06066047 252.59476864 38.97117841 C250.34018615 41.22939831 248.08319779 43.48520165 245.82550633 45.74031293 C244.75401524 46.81114317 243.68324912 47.88269939 242.6132642 48.95503461 C237.32427187 54.25309414 232.00857434 59.46657403 226.31986439 64.33897626 C224.35584851 66.02947826 222.49755341 67.80520297 220.66367543 69.63551557 C220.01721058 70.28069135 219.37074574 70.92586713 218.70469105 71.5905937 C218.06080433 72.2383476 217.41691761 72.88610151 216.75351918 73.55348432 C216.08256215 74.22057416 215.41160511 74.88766401 214.72031605 75.5749687 C214.08287465 76.21369916 213.44543324 76.85242963 212.78867543 77.51051557 C211.93028065 78.37060224 211.93028065 78.37060224 211.05454457 79.2480644 C209.59039341 80.7147581 209.59039341 80.7147581 208.69101918 82.74098432 C181.30101918 82.74098432 153.91101918 82.74098432 125.69101918 82.74098432 C125.69101918 156.66098432 125.69101918 230.58098432 125.69101918 306.74098432 C93.68101918 306.74098432 61.67101918 306.74098432 28.69101918 306.74098432 C28.69101918 232.49098432 28.69101918 158.24098432 28.69101918 81.74098432 C-13.21898082 81.74098432 -55.12898082 81.74098432 -98.30898082 81.74098432 C-94.54279442 76.71940245 -91.46026993 72.75046698 -87.08632457 68.51051557 C-84.65358945 66.08847379 -82.43319552 63.50717041 -80.19179332 60.90895307 C-78.09322763 58.49255481 -75.95458382 56.11569408 -73.80898082 53.74098432 C-70.53825159 50.11666274 -67.30728862 46.46215254 -64.10194957 42.78004682 C-62.13057039 40.53808619 -60.12735392 38.32712629 -58.12148082 36.11598432 C-55.08145624 32.74675234 -52.08280903 29.34821374 -49.14000815 25.89404899 C-48.12943866 24.71758704 -47.10938046 23.54916734 -46.07732397 22.391509 C-43.37426356 19.3272827 -40.9931689 16.33764256 -38.92979705 12.8054899 C-29.67318011 -1.89492183 -15.72639214 -0.33194871 0 0 Z " fill="#231F20" transform="translate(108.30898082256317,12.259015679359436)"/>
<path d="M0 0 C6.6 0 13.2 0 20 0 C24.37474622 10.23823687 28.26801266 20.62084301 32.125 31.0625 C33.53433631 34.86879348 34.94498663 38.67459974 36.35546875 42.48046875 C36.72376297 43.47504089 37.09205719 44.46961304 37.47151184 45.49432373 C40.3758752 53.33237953 43.30408744 61.16135059 46.23828125 68.98828125 C47.54407938 72.47597583 48.84957012 75.96378533 50.15496826 79.45162964 C51.00775723 81.72791831 51.8617955 84.00373935 52.71710205 86.27908325 C53.917724 89.47383491 55.1136399 92.67031227 56.30859375 95.8671875 C56.66826736 96.82051468 57.02794098 97.77384186 57.39851379 98.75605774 C57.72776352 99.63948349 58.05701324 100.52290924 58.39624023 101.43310547 C58.6832933 102.19831512 58.97034637 102.96352478 59.26609802 103.75192261 C60 106 60 106 61 111 C54.73 111 48.46 111 42 111 C39.36 103.41 36.72 95.82 34 88 C9.745 87.505 9.745 87.505 -15 87 C-15.66 89.97 -16.32 92.94 -17 96 C-17.80746646 98.51547185 -18.65856808 101.01756011 -19.5625 103.5 C-19.99691406 104.7065625 -20.43132813 105.913125 -20.87890625 107.15625 C-22 110 -22 110 -23 111 C-25.86267567 111.07325168 -28.700719 111.09238205 -31.5625 111.0625 C-32.36880859 111.05798828 -33.17511719 111.05347656 -34.00585938 111.04882812 C-36.00393756 111.03700518 -38.00197783 111.01906914 -40 111 C-38.76345872 104.68703269 -36.99393255 98.79226468 -34.71875 92.78125 C-34.39282867 91.90517593 -34.06690735 91.02910187 -33.73110962 90.1264801 C-32.65941102 87.24896322 -31.57968749 84.37452774 -30.5 81.5 C-29.35873717 78.44216838 -28.21952458 75.38357759 -27.08035278 72.32496643 C-26.28602224 70.19273993 -25.4909875 68.06077565 -24.69528198 65.92906189 C-21.76252688 58.06781502 -18.86133602 50.19537796 -15.9765625 42.31640625 C-15.56843323 41.20208221 -15.16030396 40.08775818 -14.73980713 38.93966675 C-13.14193882 34.57563105 -11.54472508 30.21135896 -9.94995117 25.84619141 C-8.84592853 22.82522456 -7.73957133 19.80512153 -6.6328125 16.78515625 C-6.3085025 15.89542618 -5.9841925 15.00569611 -5.65005493 14.08900452 C-5.3441745 13.25533859 -5.03829407 12.42167267 -4.72314453 11.56274414 C-4.46131378 10.84655411 -4.19948303 10.13036407 -3.92971802 9.39247131 C-2.70043578 6.22912239 -1.33688522 3.11939884 0 0 Z " fill="#262223" transform="translate(680,432)"/>
<path d="M0 0 C25.41 0 50.82 0 77 0 C77 4.95 77 9.9 77 15 C57.53 15 38.06 15 18 15 C18 25.56 18 36.12 18 47 C36.48 47 54.96 47 74 47 C74 52.28 74 57.56 74 63 C55.52 63 37.04 63 18 63 C18 74.55 18 86.1 18 98 C37.47 98 56.94 98 77 98 C77 102.95 77 107.9 77 113 C51.59 113 26.18 113 0 113 C0 75.71 0 38.42 0 0 Z " fill="#2B2828" transform="translate(143,431)"/>
<path d="M0 0 C25.41 0 50.82 0 77 0 C77 5.28 77 10.56 77 16 C57.53 16 38.06 16 18 16 C18 26.56 18 37.12 18 48 C36.15 48 54.3 48 73 48 C73 52.62 73 57.24 73 62 C54.85 62 36.7 62 18 62 C18 73.55 18 85.1 18 97 C37.47 97 56.94 97 77 97 C77 102.28 77 107.56 77 113 C51.59 113 26.18 113 0 113 C0 75.71 0 38.42 0 0 Z " fill="#2D292A" transform="translate(992,431)"/>
<path d="M0 0 C0.91201172 -0.01224609 1.82402344 -0.02449219 2.76367188 -0.03710938 C13.83392657 -0.06091637 23.58626376 2.76870588 32.02734375 10.265625 C36.92639321 15.48397936 41.53060631 21.55913616 41.78125 28.953125 C41.7503125 29.69046875 41.719375 30.4278125 41.6875 31.1875 C36.23711742 31.71182422 31.12121547 31.98990199 25.6875 31.1875 C22.65640716 28.64649599 21.35980376 25.71520647 19.6875 22.1875 C14.26804856 16.6215769 7.31633246 15.03203553 -0.25 14.75 C-7.40637853 14.95994478 -14.25369963 16.66215874 -19.4375 21.875 C-22.34851488 27.01779295 -21.94152236 31.35689938 -20.6875 37 C-17.08172487 42.73646043 -10.47556285 44.41005358 -4.3125 46.1875 C-1.07863899 46.90950587 2.17526918 47.48464453 5.4375 48.0625 C18.21766709 50.50373513 31.44633857 53.6372408 39.53515625 64.71875 C44.57911912 72.82724823 45.94852316 80.0725528 44.26171875 89.58984375 C41.78482673 98.23617234 36.027694 105.1971789 28.3828125 109.8359375 C14.60342231 116.74560272 -0.34615906 118.76416368 -15.3125 114.1875 C-28.2418141 108.8513367 -36.14356764 101.96187002 -41.6875 89 C-43.36475985 84.88866793 -43.3125 83.01798891 -43.3125 78.1875 C-37.7025 78.1875 -32.0925 78.1875 -26.3125 78.1875 C-25.6525 80.023125 -24.9925 81.85875 -24.3125 83.75 C-21.14455453 91.29611729 -16.87526266 95.99447786 -9.25 99.125 C-0.50139628 101.55095597 9.75251251 101.71293676 17.8828125 97.40234375 C21.18651451 95.17842313 23.8970714 92.7683572 25.6875 89.1875 C26.27537514 84.70030116 26.65434895 80.20976422 24.6640625 76.046875 C18.32098309 67.98660835 7.85943465 66.32096833 -1.625 64.25 C-28.94910174 57.92703456 -28.94910174 57.92703456 -36.71875 46.03515625 C-40.39795398 38.97896861 -41.16104512 32.09750107 -40.3125 24.1875 C-37.7073591 15.92815195 -32.726288 9.59601148 -25.1484375 5.4609375 C-16.40284062 1.29542747 -9.57455037 0.00668147 0 0 Z " fill="#262223" transform="translate(353.3125,429.8125)"/>
<path d="M0 0 C9.3199208 5.48803699 16.1261315 13.50413242 19 24 C19 25.32 19 26.64 19 28 C13.39 28 7.78 28 2 28 C1.01 25.6796875 1.01 25.6796875 0 23.3125 C-2.6946067 17.91565316 -5.58203888 15.47647325 -11 13 C-12.36125 12.3503125 -12.36125 12.3503125 -13.75 11.6875 C-22.77767355 9.77779983 -30.88942441 10.52213194 -39 15 C-42.2739971 16.85641749 -42.2739971 16.85641749 -44 20 C-44.73986911 24.80914924 -44.54195682 29.21928474 -43.125 33.875 C-37.04941045 39.95058955 -28.42054742 41.90826917 -20.25 43.5 C-5.12484285 46.71711711 8.24489294 49.95740964 17.7734375 62.97265625 C22.10284063 70.12858053 22.32451956 79.24752456 20.46484375 87.32421875 C19.75 89.0625 19.75 89.0625 18 92 C17.443125 92.99 16.88625 93.98 16.3125 95 C11.39939127 101.37376268 5.50231418 106.0696205 -2 109 C-2.76441406 109.2990625 -3.52882813 109.598125 -4.31640625 109.90625 C-18.19087964 114.48164886 -32.73696458 113.00563633 -45.70703125 106.6796875 C-55.57043216 101.26738655 -61.41057829 93.63309863 -65 83 C-65.5961843 79.94400347 -65.84649521 77.12126402 -66 74 C-60.39 74 -54.78 74 -49 74 C-48.4225 75.711875 -47.845 77.42375 -47.25 79.1875 C-44.09624655 87.71027317 -40.06863026 91.13656747 -32 95 C-23.59227629 97.80257457 -13.30995312 96.6395638 -5.25 93.28125 C-1.2600347 91.00918643 0.94668738 88.10662524 3 84 C3.55308557 79.46651174 3.42758431 75.92643268 1.5 71.75 C-6.33219101 63.13458989 -17.19911097 61.53041871 -28.10546875 59.07421875 C-41.02573334 56.11229741 -52.20742731 52.38614005 -60 41 C-64.07721803 34.15856636 -64.12412091 25.90654031 -62.37890625 18.2890625 C-59.43100139 9.77289291 -53.79924354 4.21839689 -45.875 0.125 C-44.26998276 -0.62751628 -42.64338459 -1.33543382 -41 -2 C-40.13890625 -2.36609375 -39.2778125 -2.7321875 -38.390625 -3.109375 C-26.73387332 -6.17128673 -10.69690847 -5.68383585 0 0 Z " fill="#262223" transform="translate(1224,434)"/>
<path d="M0 0 C29.04 0 58.08 0 88 0 C88 4.62 88 9.24 88 14 C76.45 14 64.9 14 53 14 C53 46.34 53 78.68 53 112 C47.06 112 41.12 112 35 112 C35 79.66 35 47.32 35 14 C23.45 14 11.9 14 0 14 C0 9.38 0 4.76 0 0 Z " fill="#272324" transform="translate(811,432)"/>
<path d="M0 0 C29.04 0 58.08 0 88 0 C88 4.62 88 9.24 88 14 C76.45 14 64.9 14 53 14 C53 46.34 53 78.68 53 112 C47.06 112 41.12 112 35 112 C35 79.66 35 47.32 35 14 C23.45 14 11.9 14 0 14 C0 9.38 0 4.76 0 0 Z " fill="#272324" transform="translate(482,432)"/>
<path d="M0 0 C2.215134 2.215134 2.75013723 3.65970524 3.78759766 6.58569336 C4.29790024 8.01243629 4.29790024 8.01243629 4.81851196 9.46800232 C5.18004364 10.49820999 5.54157532 11.52841766 5.9140625 12.58984375 C6.28856537 13.64530899 6.66306824 14.70077423 7.04891968 15.78822327 C7.84008749 18.02246277 8.62839125 20.2577182 9.4140625 22.49389648 C10.61975687 25.92258984 11.83653021 29.34720189 13.0546875 32.77148438 C13.8209796 34.93986853 14.58662635 37.10848088 15.3515625 39.27734375 C15.71714264 40.30552719 16.08272278 41.33371063 16.4593811 42.39305115 C16.7932785 43.34736526 17.1271759 44.30167938 17.47119141 45.28491211 C17.76716217 46.12493271 18.06313293 46.96495331 18.36807251 47.83042908 C19 50 19 50 19 53 C6.79 53 -5.42 53 -18 53 C-16.02266325 45.74976527 -13.97675169 38.77149801 -11.42578125 31.73828125 C-11.09708542 30.82161179 -10.76838959 29.90494232 -10.42973328 28.960495 C-9.39456665 26.07640613 -8.35364796 23.19443428 -7.3125 20.3125 C-6.60313148 18.33933077 -5.89414378 16.36602459 -5.18554688 14.39257812 C-3.46142162 9.59346049 -1.73213998 4.7962304 0 0 Z " fill="#FAFAFA" transform="translate(689,451)"/>
</svg>
