<?xml version="1.0" encoding="UTF-8"?>
<svg version="1.1" xmlns="http://www.w3.org/2000/svg" width="530" height="217">
<path d="M0 0 C1.51706877 -0.01848651 3.03409131 -0.04116815 4.55104065 -0.06770325 C8.65532105 -0.12591429 12.75720641 -0.12081756 16.86176276 -0.10049701 C20.29831692 -0.08916883 23.73442089 -0.10871428 27.17091781 -0.12804657 C35.286863 -0.17309039 43.40163626 -0.16649825 51.51757812 -0.12695312 C59.86324675 -0.08712655 68.20546057 -0.13096069 76.5507037 -0.21696895 C83.73767084 -0.28822694 90.92356317 -0.30847004 98.11085445 -0.28830105 C102.3938035 -0.27668467 106.67459578 -0.28333755 110.9572506 -0.33859062 C140.42372033 -0.6823498 140.42372033 -0.6823498 147.7939043 5.92249203 C150.18272739 8.5678032 152.05109027 11.34066826 153.9777832 14.34155273 C156.16028919 16.49072644 156.16028919 16.49072644 158.2277832 18.09155273 C161.94917105 21.25004158 165.33664199 24.68480617 168.76293945 28.15795898 C170.75437781 30.12129944 172.79080898 31.96234943 174.9152832 33.77905273 C179.00137809 37.28025929 182.73713997 41.08564005 186.5168457 44.91186523 C189.3388215 47.69800641 192.27376369 50.30220287 195.2980957 52.86499023 C196.9777832 54.34155273 196.9777832 54.34155273 199.2277832 56.84155273 C199.8052832 57.33655273 200.3827832 57.83155273 200.9777832 58.34155273 C204.39555537 57.96248433 206.02902493 56.64091317 208.3684082 54.20874023 C208.99134766 53.57097656 209.61428711 52.93321289 210.25610352 52.27612305 C210.90675781 51.59646484 211.55741211 50.91680664 212.2277832 50.21655273 C213.58008412 48.8319156 214.93422822 47.44907601 216.2902832 46.06811523 C216.93352539 45.41230469 217.57676758 44.75649414 218.23950195 44.08081055 C220.71877119 41.60014846 223.34605741 39.33526928 226.0246582 37.07592773 C229.12637983 34.32159893 232.00044079 31.33900873 234.91235352 28.38745117 C238.1095356 25.16368129 241.42268818 22.16626331 244.8762207 19.22436523 C248.50040324 15.97742103 251.86755704 12.46902761 255.2668457 8.98999023 C256.16145508 8.11600586 257.05606445 7.24202148 257.9777832 6.34155273 C259.27921265 5.03831055 259.27921265 5.03831055 260.60693359 3.70874023 C264.40990423 0.58303784 267.85826143 0.67880331 272.62231445 0.81811523 C273.43270676 0.8228183 274.24309906 0.82752136 275.07804871 0.83236694 C277.64968025 0.85361049 280.21920747 0.91020435 282.7902832 0.96655273 C284.53700863 0.98306947 286.28375602 0.99741505 288.03051758 1.00952148 C300.78180472 1.14557425 300.78180472 1.14557425 301.9777832 2.34155273 C302.07302225 5.23298424 302.10331348 8.10047338 302.09130859 10.9921875 C302.09145462 11.89941559 302.09160065 12.80664368 302.0917511 13.74136353 C302.09105161 16.75525258 302.08325755 19.76908066 302.07543945 22.78295898 C302.0735754 24.86661241 302.07215144 26.95026627 302.07115173 29.03392029 C302.06732554 34.5297872 302.0574944 40.02562787 302.04644775 45.52148438 C302.0362358 51.12491501 302.03165458 56.72834986 302.02661133 62.33178711 C302.01587222 73.33505388 301.9987946 84.33830113 301.9777832 95.34155273 C319.47593493 95.43502786 336.97400864 95.50554743 354.47235298 95.54880142 C362.59729488 95.56941956 370.72208156 95.59752571 378.84692383 95.64331055 C385.92921804 95.6832014 393.01139985 95.708991 400.09380329 95.71790671 C403.84332819 95.72311771 407.59253152 95.73534941 411.34195328 95.76447296 C415.52946438 95.796735 419.71641774 95.79751071 423.90405273 95.7956543 C425.14483078 95.8100354 426.38560883 95.8244165 427.66398621 95.8392334 C436.12969561 95.80589781 436.12969561 95.80589781 442.9777832 91.34155273 C444.71580055 88.5445657 444.71580055 88.5445657 444.9777832 85.34155273 C443.87415436 82.15329162 443.08065003 80.04925703 440.19189453 78.19555664 C437.58002962 77.18813538 435.47583529 77.02137043 432.67700195 76.92749023 C431.02752563 76.86960327 431.02752563 76.86960327 429.34472656 76.81054688 C428.13051025 76.77952881 426.91629395 76.74851074 425.6652832 76.71655273 C424.38596924 76.67715576 423.10665527 76.63775879 421.78857422 76.59716797 C413.18970666 76.3567432 404.59522522 76.32381594 395.9934082 76.35327148 C394.95751053 76.35631287 393.92161285 76.35935425 392.85432434 76.36248779 C387.67407322 76.38023894 382.49445673 76.41240409 377.31445312 76.46606445 C357.98299673 76.61522154 341.91523854 75.55865978 327.22387695 61.68530273 C319.90871715 53.91179959 318.27901025 45.3650633 318.5949707 34.89624023 C319.11979695 30.02285363 320.37580842 26.46405653 322.9777832 22.34155273 C323.3902832 21.65706055 323.8027832 20.97256836 324.2277832 20.26733398 C330.5263363 10.87318519 340.87875897 5.047204 351.80508423 2.74612427 C362.63206857 1.04646016 373.316917 1.08619274 384.2512207 1.14624023 C386.27145242 1.14997881 388.29168597 1.15282178 390.31192017 1.15481567 C395.58240933 1.16238566 400.85278507 1.18197574 406.12322998 1.20422363 C411.52004462 1.22482644 416.91687792 1.233848 422.3137207 1.24389648 C432.86845754 1.26522905 443.42311087 1.29928305 453.9777832 1.34155273 C452.19592318 4.36227139 450.50630897 7.06679086 448.0871582 9.61108398 C447.54551025 10.18632812 447.0038623 10.76157227 446.44580078 11.35424805 C445.87885498 11.94818359 445.31190918 12.54211914 444.7277832 13.15405273 C443.55893947 14.39411401 442.39096436 15.63499461 441.22387695 16.87670898 C440.6642627 17.47112793 440.10464844 18.06554687 439.52807617 18.67797852 C437.03251468 21.35589285 434.6316762 24.11170266 432.24731445 26.88842773 C429.25345 30.31525104 429.25345 30.31525104 426.3412323 30.59310913 C425.22380142 30.59436798 424.10637054 30.59562683 422.95507812 30.59692383 C421.69003952 30.60388275 420.42500092 30.61084167 419.12162781 30.61801147 C418.44347204 30.61733044 417.76531628 30.6166494 417.06661034 30.61594772 C414.94357151 30.61498357 412.82104057 30.62791173 410.69807434 30.64492798 C404.66171241 30.69122787 398.62540048 30.71579717 392.58886719 30.72241211 C388.89698976 30.72743356 385.20563954 30.7517182 381.51394081 30.7877388 C380.10860678 30.79752579 378.70320011 30.79987469 377.29784203 30.79456711 C375.328101 30.78747917 373.358319 30.80689512 371.38867188 30.82739258 C370.26885422 30.83024261 369.14903656 30.83309265 367.99528503 30.83602905 C364.27215613 31.45976681 362.59275626 32.65299734 359.9777832 35.34155273 C359.3095487 40.07841862 359.3095487 40.07841862 361.3527832 44.21655273 C364.91519066 46.68283482 367.58282051 46.48335258 371.89916992 46.51513672 C372.61170425 46.52182373 373.32423859 46.52851074 374.05836487 46.53540039 C375.60961053 46.54946826 377.16087711 46.56135676 378.71215439 46.57134819 C381.17724783 46.5877783 383.64219002 46.61102413 386.10720825 46.63624573 C393.11770023 46.70691477 400.12825865 46.76673283 407.13891602 46.81835938 C411.42720602 46.8504187 415.71532942 46.89177419 420.00348282 46.93855476 C421.62911049 46.95443328 423.25477659 46.96681894 424.88045883 46.97546196 C443.50927669 47.07581749 459.20139234 48.72522932 472.98950195 62.32592773 C480.15099403 70.07295061 482.32927314 77.97820108 482.1887207 88.43530273 C481.43514522 98.81789828 476.74392539 105.94419935 469.3527832 112.96655273 C455.71614436 124.29585155 440.35191678 124.64629684 423.45922852 124.56860352 C421.72349046 124.56803827 419.98775194 124.56835816 418.25201416 124.56948853 C413.57514528 124.57005863 408.89838052 124.55836019 404.22153568 124.54434061 C399.32085267 124.53177575 394.42016685 124.53065824 389.51947021 124.52828979 C380.25502997 124.52209186 370.99063734 124.50570401 361.72621799 124.48559082 C351.17233825 124.46317913 340.61845615 124.45222517 330.06455851 124.44219995 C308.36893432 124.42133617 286.67337534 124.38468117 264.9777832 124.34155273 C264.6477832 99.59155273 264.3177832 74.84155273 263.9777832 49.34155273 C259.0277832 53.79655273 259.0277832 53.79655273 253.9777832 58.34155273 C252.20115505 59.8181698 250.41297917 61.28128408 248.6027832 62.71655273 C243.45523772 66.88118642 238.59425932 71.29460415 233.73950195 75.79077148 C230.21287375 79.04803911 226.61624753 82.2103442 222.9777832 85.34155273 C222.17606689 86.0328125 222.17606689 86.0328125 221.3581543 86.73803711 C219.50345885 88.33651483 217.64718325 89.9331367 215.7902832 91.52905273 C214.89817139 92.2965686 214.89817139 92.2965686 213.98803711 93.07958984 C210.70008948 95.89855533 207.3784555 98.65815971 203.9777832 101.34155273 C199.94679858 99.9788659 197.38711569 98.17608958 194.2902832 95.27905273 C191.3634652 92.4786216 191.3634652 92.4786216 187.9777832 90.34155273 C187.9777832 89.68155273 187.9777832 89.02155273 187.9777832 88.34155273 C187.41188477 88.0953418 186.84598633 87.84913086 186.26293945 87.59545898 C183.58530062 86.1261905 181.64734708 84.36402838 179.4152832 82.27905273 C175.95218161 79.10370157 172.44583065 76.04327089 168.7902832 73.09155273 C162.3838673 67.90627443 156.18021229 62.49574455 149.97485352 57.07324219 C146.98727707 54.48267009 143.98184083 51.91297884 140.9777832 49.34155273 C140.96747574 50.26640976 140.95716827 51.19126678 140.94654846 52.14414978 C140.84875138 60.84114497 140.74626283 69.5380693 140.63844395 78.23494625 C140.58317443 82.70657267 140.52974813 87.17820558 140.48046875 91.64990234 C140.43288443 95.9617304 140.38054405 100.27347642 140.32484245 104.58520699 C140.30439192 106.23389213 140.28568339 107.88259979 140.26870918 109.53132439 C140.24472461 111.83265233 140.21466243 114.13382383 140.18310547 116.43505859 C140.16756119 117.74744003 140.15201691 119.05982147 140.13600159 120.41197205 C139.9777832 123.34155273 139.9777832 123.34155273 138.9777832 124.34155273 C127.0977832 124.34155273 115.2177832 124.34155273 102.9777832 124.34155273 C102.9777832 94.64155273 102.9777832 64.94155273 102.9777832 34.34155273 C84.4977832 34.67155273 66.0177832 35.00155273 46.9777832 35.34155273 C46.9777832 64.71155273 46.9777832 94.08155273 46.9777832 124.34155273 C34.1077832 124.34155273 21.2377832 124.34155273 7.9777832 124.34155273 C7.9777832 94.64155273 7.9777832 64.94155273 7.9777832 34.34155273 C-8.8522168 34.34155273 -25.6822168 34.34155273 -43.0222168 34.34155273 C-36.28327397 25.35629563 -36.28327397 25.35629563 -33.6550293 22.63061523 C-33.07881836 22.02475586 -32.50260742 21.41889648 -31.90893555 20.79467773 C-31.32756836 20.19139648 -30.74620117 19.58811523 -30.1472168 18.96655273 C-28.97934446 17.75406505 -27.81532918 16.53785142 -26.6550293 15.31811523 C-26.08725926 14.73047677 -25.51948923 14.14283831 -24.93451405 13.53739262 C-22.95280967 11.37882694 -22.95280967 11.37882694 -21.44557476 8.81288052 C-15.7509086 0.04218033 -9.87160115 -0.1156594 0 0 Z " fill="#826D3F" transform="translate(45.022216796875,0.658447265625)"/>
<path d="M0 0 C2.02023172 0.00373858 4.04046527 0.00658155 6.06069946 0.00857544 C11.33118863 0.01614543 16.60156437 0.03573551 21.87200928 0.0579834 C27.26882392 0.07858621 32.66565721 0.08760777 38.0625 0.09765625 C48.61723684 0.11898882 59.17189017 0.15304282 69.7265625 0.1953125 C67.94470247 3.21603116 66.25508827 5.92055062 63.8359375 8.46484375 C63.29428955 9.04008789 62.7526416 9.61533203 62.19458008 10.20800781 C61.62763428 10.80194336 61.06068848 11.39587891 60.4765625 12.0078125 C59.30771877 13.24787377 58.13974366 14.48875437 56.97265625 15.73046875 C56.41304199 16.3248877 55.85342773 16.91930664 55.27685547 17.53173828 C52.78129397 20.20965262 50.38045549 22.96546243 47.99609375 25.7421875 C45.0022293 29.16901081 45.0022293 29.16901081 42.0900116 29.4468689 C40.97258072 29.44812775 39.85514984 29.4493866 38.70385742 29.45068359 C37.43881882 29.45764252 36.17378021 29.46460144 34.8704071 29.47177124 C34.19225134 29.4710902 33.51409557 29.47040916 32.81538963 29.46970749 C30.69235081 29.46874333 28.56981987 29.4816715 26.44685364 29.49868774 C20.41049171 29.54498763 14.37417978 29.56955694 8.33764648 29.57617188 C4.64576906 29.58119333 0.95441884 29.60547797 -2.73727989 29.64149857 C-4.14261392 29.65128556 -5.54802059 29.65363446 -6.95337868 29.64832687 C-8.9231197 29.64123893 -10.89290171 29.66065488 -12.86254883 29.68115234 C-13.98236649 29.68400238 -15.10218414 29.68685242 -16.25593567 29.68978882 C-19.97906457 30.31352658 -21.65846445 31.5067571 -24.2734375 34.1953125 C-24.941672 38.93217839 -24.941672 38.93217839 -22.8984375 43.0703125 C-19.33603004 45.53659459 -16.66840019 45.33711235 -12.35205078 45.36889648 C-11.63951645 45.3755835 -10.92698212 45.38227051 -10.19285583 45.38916016 C-8.64161017 45.40322803 -7.09034359 45.41511653 -5.53906631 45.42510796 C-3.07397287 45.44153807 -0.60903068 45.4647839 1.85598755 45.49000549 C8.86647953 45.56067453 15.87703795 45.6204926 22.88769531 45.67211914 C27.17598532 45.70417846 31.46410871 45.74553395 35.75226212 45.79231453 C37.37788979 45.80819305 39.00355588 45.82057871 40.62923813 45.82922173 C59.25805599 45.92957726 74.95017164 47.57898908 88.73828125 61.1796875 C95.89977332 68.92671037 98.07805244 76.83196084 97.9375 87.2890625 C97.18392452 97.67165804 92.49270469 104.79795911 85.1015625 111.8203125 C72.33217402 122.42910103 58.23919033 123.51128236 42.23730469 123.42236328 C40.82668567 123.42179765 39.41606607 123.42211868 38.00544739 123.42324829 C34.21490359 123.42381689 30.42448906 123.41214348 26.63397503 123.39810038 C22.65819154 123.38550982 18.68240436 123.38441601 14.706604 123.38204956 C7.19524872 123.37585907 -0.31604763 123.35948151 -7.82737708 123.33935058 C-16.38612991 123.31691546 -24.94488571 123.3059791 -33.50366068 123.29595971 C-51.09362025 123.27511284 -68.68352262 123.23998467 -86.2734375 123.1953125 C-84.77365894 120.02147052 -83.40000928 118.20244405 -80.67578125 115.96484375 C-76.16953555 112.14904655 -71.99785253 108.06800012 -67.8359375 103.8828125 C-66.75795898 102.81063477 -66.75795898 102.81063477 -65.65820312 101.71679688 C-64.97564453 101.03294922 -64.29308594 100.34910156 -63.58984375 99.64453125 C-62.97568604 99.02924561 -62.36152832 98.41395996 -61.72875977 97.7800293 C-60.18172825 96.24155983 -60.18172825 96.24155983 -59.2734375 94.1953125 C-58.41590661 94.20084326 -58.41590661 94.20084326 -57.54105186 94.20648575 C-43.61920858 94.2948916 -29.69741458 94.36079317 -15.77535057 94.40256119 C-9.04267662 94.42317091 -2.31019026 94.45126068 4.42236328 94.49707031 C10.91920646 94.54125499 17.41592792 94.56444825 23.91291428 94.57482147 C26.39205366 94.58221426 28.87118234 94.59665051 31.3502388 94.61823273 C34.82178069 94.64725433 38.29251654 94.65126886 41.76416016 94.64941406 C43.30272675 94.67098572 43.30272675 94.67098572 44.87237549 94.69299316 C50.79522788 94.65873417 54.24334527 94.19313568 58.7265625 90.1953125 C60.46457985 87.39832546 60.46457985 87.39832546 60.7265625 84.1953125 C59.62293365 81.00705139 58.82942933 78.90301679 55.94067383 77.04931641 C53.32880892 76.04189514 51.22461459 75.87513019 48.42578125 75.78125 C46.77630493 75.72336304 46.77630493 75.72336304 45.09350586 75.66430664 C43.87928955 75.63328857 42.66507324 75.60227051 41.4140625 75.5703125 C40.13474854 75.53091553 38.85543457 75.49151855 37.53735352 75.45092773 C28.93848596 75.21050296 20.34400451 75.17757571 11.7421875 75.20703125 C10.70628983 75.21007263 9.67039215 75.21311401 8.60310364 75.21624756 C3.42285252 75.23399871 -1.75676397 75.26616385 -6.93676758 75.31982422 C-26.26822397 75.4689813 -42.33598216 74.41241954 -57.02734375 60.5390625 C-64.34250355 52.76555935 -65.97221045 44.21882306 -65.65625 33.75 C-65.13142375 28.87661339 -63.87541228 25.31781629 -61.2734375 21.1953125 C-60.8609375 20.51082031 -60.4484375 19.82632812 -60.0234375 19.12109375 C-53.7248844 9.72694496 -43.37246174 3.90096377 -32.44613647 1.59988403 C-21.61915213 -0.09978007 -10.9343037 -0.06004749 0 0 Z " fill="#231D1D" transform="translate(429.2734375,1.8046875)"/>
<path d="M0 0 C1.22036453 -0.00146027 2.44072906 -0.00292053 3.69807434 -0.00442505 C7.02435063 0.00132516 10.34431604 0.05121931 13.66947556 0.12131453 C17.15128471 0.18410143 20.6331906 0.18972279 24.11547852 0.2015686 C30.69984298 0.23257187 37.28253442 0.31451996 43.86616421 0.4150635 C51.36536519 0.52708742 58.86464882 0.58188141 66.36447906 0.63201785 C81.78301536 0.73636553 97.19988517 0.91209719 112.6171875 1.13525391 C112.6171875 7.25658523 105.63191513 12.7793876 101.61254883 17.12402344 C100.34840838 18.52117247 99.11679004 19.94863108 97.92407227 21.40722656 C93.12303448 27.25565343 89.37840065 29.60618578 82.6171875 34.13525391 C66.2821875 34.63025391 66.2821875 34.63025391 49.6171875 35.13525391 C49.6171875 64.50525391 49.6171875 93.87525391 49.6171875 124.13525391 C36.7471875 124.13525391 23.8771875 124.13525391 10.6171875 124.13525391 C10.6171875 94.43525391 10.6171875 64.73525391 10.6171875 34.13525391 C-6.2128125 34.13525391 -23.0428125 34.13525391 -40.3828125 34.13525391 C-33.64386967 25.1499968 -33.64386967 25.1499968 -31.015625 22.42431641 C-30.43941406 21.81845703 -29.86320312 21.21259766 -29.26953125 20.58837891 C-28.68816406 19.98509766 -28.10679688 19.38181641 -27.5078125 18.76025391 C-26.33994016 17.54776622 -25.17592489 16.33155259 -24.015625 15.11181641 C-23.45125732 14.52444387 -22.88688965 13.93707134 -22.30541992 13.33189964 C-20.31706919 11.16086248 -20.31706919 11.16086248 -18.71337891 8.59932899 C-13.38281607 0.70473583 -9.25766884 -0.29194329 0 0 Z " fill="#231D1D" transform="translate(42.3828125,0.86474609375)"/>
<path d="M0 0 C3.55097588 2.94655445 5.00798908 5.26975641 6.9375 9.4375 C6.9375 10.0975 6.9375 10.7575 6.9375 11.4375 C4.07807572 11.67982409 1.74146029 11.87774797 -1.0625 11.4375 C-3.6875 9 -3.6875 9 -6.0625 6.4375 C-10.41100279 5.07859288 -13.0279037 5.36256476 -17.0625 7.4375 C-18.35883621 8.50395115 -18.35883621 8.50395115 -18.125 11 C-18.104375 11.804375 -18.08375 12.60875 -18.0625 13.4375 C-13.71679096 15.12749796 -9.43310652 16.63530244 -4.9375 17.875 C-0.70018183 19.15923335 2.66367294 20.32736429 5.9375 23.4375 C7.99588741 27.98715457 8.20185087 31.42966229 6.9375 36.25 C4.11153798 40.75387697 0.93035081 42.7732164 -4.0625 44.4375 C-11.41634153 45.10206938 -18.04486305 45.12431339 -24.0625 40.4375 C-26.91605811 37.15590817 -27.99077959 35.40572547 -28.3125 31.0625 C-28.23 30.19625 -28.1475 29.33 -28.0625 28.4375 C-25.7525 28.4375 -23.4425 28.4375 -21.0625 28.4375 C-20.5675 29.55125 -20.0725 30.665 -19.5625 31.8125 C-17.85053478 34.78877875 -16.55488201 36.06140953 -13.25 37.0625 C-8.69089358 37.84796403 -5.97158976 36.83082026 -2.0625 34.4375 C-0.66033877 32.58289721 -0.66033877 32.58289721 -1.0625 30.4375 C-4.19749695 26.37858707 -7.62418427 25.50842562 -12.4375 24.5 C-18.13157937 23.15740465 -22.10248344 21.86340086 -26.0625 17.4375 C-27.80830224 13.94589553 -27.63233131 10.24704642 -27.0625 6.4375 C-25.38579787 3.13279664 -23.12946689 0.97006838 -19.78515625 -0.69921875 C-13.71078409 -2.62523919 -5.79986739 -2.93138634 0 0 Z " fill="#1F1A1A" transform="translate(488.0625,169.5625)"/>
<path d="M0 0 C4.68470947 2.39349785 6.60161261 5.76167073 8.7265625 10.3515625 C8.7265625 11.0115625 8.7265625 11.6715625 8.7265625 12.3515625 C4.15937945 12.80828081 2.33192702 12.83338324 -1.3359375 9.9140625 C-2.79 8.645625 -2.79 8.645625 -4.2734375 7.3515625 C-7.66678481 6.31278271 -9.63302819 6.20924932 -13.0859375 6.9765625 C-15.51126521 8.17517771 -15.51126521 8.17517771 -16.0859375 10.8515625 C-16.29836748 13.26612537 -16.29836748 13.26612537 -16.2734375 15.3515625 C-14.66275391 15.71507812 -14.66275391 15.71507812 -13.01953125 16.0859375 C-11.5831966 16.42389859 -10.14700621 16.76247315 -8.7109375 17.1015625 C-7.65422852 17.33746094 -7.65422852 17.33746094 -6.57617188 17.578125 C-0.53672147 19.02536657 4.94737028 20.9051732 8.7265625 26.1015625 C9.9912756 30.21188007 9.95729129 33.24347469 8.7265625 37.3515625 C6.54115457 41.1339993 4.04226193 43.29754272 -0.08984375 44.84375 C-7.05161295 46.46276609 -14.39233213 46.36296191 -20.6484375 42.6875 C-23.59838489 40.26230287 -24.78762282 37.88037237 -26.2734375 34.3515625 C-26.5234375 31.4140625 -26.5234375 31.4140625 -26.2734375 29.3515625 C-23.9634375 29.3515625 -21.6534375 29.3515625 -19.2734375 29.3515625 C-18.7990625 30.4653125 -18.3246875 31.5790625 -17.8359375 32.7265625 C-16.48397922 35.10697476 -15.68052965 36.16092793 -13.1796875 37.33203125 C-9.55202043 38.2329019 -6.98447054 38.53310285 -3.3359375 37.6015625 C-1.15451762 36.39145697 -1.15451762 36.39145697 0.7265625 34.3515625 C0.75737206 31.80618317 0.75737206 31.80618317 -0.2734375 29.3515625 C-2.24962674 27.97985411 -2.24962674 27.97985411 -4.7734375 27.2265625 C-5.67449219 26.90300781 -6.57554687 26.57945312 -7.50390625 26.24609375 C-9.25024512 25.68204354 -11.00235555 25.13529011 -12.76171875 24.61328125 C-17.82148685 23.09109891 -20.80648992 21.57690486 -24.2734375 17.3515625 C-25.80558638 14.28726474 -25.50282298 11.7349983 -25.2734375 8.3515625 C-21.03261444 -1.46929089 -9.3594352 -2.66952963 0 0 Z " fill="#201A1B" transform="translate(148.2734375,168.6484375)"/>
<path d="M0 0 C10.56 0 21.12 0 32 0 C32 2.31 32 4.62 32 7 C24.08 7 16.16 7 8 7 C8 10.96 8 14.92 8 19 C15.26 19 22.52 19 30 19 C30 21.31 30 23.62 30 26 C22.74 26 15.48 26 8 26 C8 30.29 8 34.58 8 39 C15.92 39 23.84 39 32 39 C32 40.98 32 42.96 32 45 C21.44 45 10.88 45 0 45 C0 30.15 0 15.3 0 0 Z " fill="#231D1D" transform="translate(393,168)"/>
<path d="M0 0 C10.56 0 21.12 0 32 0 C32 2.31 32 4.62 32 7 C24.08 7 16.16 7 8 7 C8 10.96 8 14.92 8 19 C15.26 19 22.52 19 30 19 C30 21.31 30 23.62 30 26 C22.74 26 15.48 26 8 26 C8 30.29 8 34.58 8 39 C15.92 39 23.84 39 32 39 C32 40.98 32 42.96 32 45 C21.44 45 10.88 45 0 45 C0 30.15 0 15.3 0 0 Z " fill="#221C1D" transform="translate(55,168)"/>
<path d="M0 0 C2.97 0 5.94 0 9 0 C10.79680558 4.69550897 12.59326084 9.39115177 14.3894043 14.08691406 C14.99933616 15.68135113 15.6093605 17.27575283 16.21948242 18.87011719 C17.1009975 21.17373303 17.98216995 23.47747969 18.86328125 25.78125 C19.13215652 26.48366821 19.4010318 27.18608643 19.67805481 27.90979004 C20.1961579 29.26480574 20.71259035 30.62046162 21.22720337 31.97680664 C21.76422489 33.38273718 22.3099334 34.78536788 22.86239624 36.18530273 C25 41.67482131 25 41.67482131 25 45 C22.36 45 19.72 45 17 45 C16.01 42.03 15.02 39.06 14 36 C7.73 36 1.46 36 -5 36 C-5.99 38.97 -6.98 41.94 -8 45 C-10.64 45 -13.28 45 -16 45 C-13.39434755 35.40817795 -9.80058268 26.17029435 -6.3125 16.875 C-5.69957623 15.23448465 -5.08694362 13.59386048 -4.47460938 11.953125 C-2.98642724 7.96748737 -1.49431106 3.98334358 0 0 Z M4 10 C2.99619084 12.79035046 1.9968055 15.58214855 1 18.375 C0.71382813 19.1690625 0.42765625 19.963125 0.1328125 20.78125 C-0.13789063 21.54179687 -0.40859375 22.30234375 -0.6875 23.0859375 C-0.93886719 23.7876709 -1.19023437 24.4894043 -1.44921875 25.21240234 C-2.0981509 27.00680111 -2.0981509 27.00680111 -2 29 C2.29 29 6.58 29 11 29 C9.11409966 22.62386075 7.14364744 16.29411375 5 10 C4.67 10 4.34 10 4 10 Z " fill="#201B1B" transform="translate(269,168)"/>
<path d="M0 0 C11.88 0 23.76 0 36 0 C36 2.31 36 4.62 36 7 C31.38 7 26.76 7 22 7 C22 19.54 22 32.08 22 45 C19.36 45 16.72 45 14 45 C14 32.46 14 19.92 14 7 C9.38 7 4.76 7 0 7 C0 4.69 0 2.38 0 0 Z " fill="#221D1D" transform="translate(190,168)"/>
<path d="M0 0 C11.88 0 23.76 0 36 0 C36 2.31 36 4.62 36 7 C31.38 7 26.76 7 22 7 C22 19.54 22 32.08 22 45 C19.36 45 16.72 45 14 45 C14 32.46 14 19.92 14 7 C9.38 7 4.76 7 0 7 C0 4.69 0 2.38 0 0 Z " fill="#231D1E" transform="translate(321,168)"/>
<path d="M0 0 C2.26459277 1.05141807 4.00727389 2.0065465 5.875 3.6875 C8.04860967 5.32579755 8.04860967 5.32579755 11.25 4.6875 C12.1575 4.460625 13.065 4.23375 14 4 C14 4.66 14 5.32 14 6 C14.66 6.33 15.32 6.66 16 7 C16 6.01 16 5.02 16 4 C14.02 3.01 12.04 2.02 10 1 C12 0 12 0 14.25 0.5 C17.4282598 1.07786542 19.85899662 0.65741931 23 0 C23 0.66 23 1.32 23 2 C21.02 2.99 21.02 2.99 19 4 C21.1050479 4.97861264 21.1050479 4.97861264 24 5 C26.84968868 3.58832428 29.41863524 1.85115239 32 0 C30.26647781 4.08493347 28.4342505 5.42103431 24.4765625 7.234375 C18.15458716 9.18880271 11.40883699 9.0145944 5.375 6.25 C2.39350225 4.66489993 1.31396761 3.09628011 0 0 Z " fill="#161212" transform="translate(462,206)"/>
<path d="M0 0 C12.00552158 1.31472571 21.41691152 3.50019162 31 11 C30.01 11.33 29.02 11.66 28 12 C26.24609375 11.00390625 26.24609375 11.00390625 24.4375 9.5625 C22.01243083 7.47634023 22.01243083 7.47634023 19 7 C19 6.34 19 5.68 19 5 C15.64541845 4.23477199 15.64541845 4.23477199 12 4 C10.03568595 5.29264699 10.03568595 5.29264699 9 7 C5.17497835 5.44165785 2.85216179 2.92784104 0 0 Z " fill="#1A1515" transform="translate(483,48)"/>
<path d="M0 0 C2.5042003 3.75630045 1.77125351 4.7152583 1 9 C1.185625 9.9075 1.37125 10.815 1.5625 11.75 C1.706875 12.4925 1.85125 13.235 2 14 C1.34 14.66 0.68 15.32 0 16 C0 15.34 0 14.68 0 14 C-1.32 14 -2.64 14 -4 14 C-5.05257541 10.02360402 -5.12393312 6.97699413 -4 3 C-1.9375 1.125 -1.9375 1.125 0 0 Z " fill="#241F20" transform="translate(129,171)"/>
<path d="M0 0 C-0.39276782 2.41345489 -0.74223485 3.73045526 -2.453125 5.51953125 C-7.31085044 9.01498151 -7.31085044 9.01498151 -10.875 8.9375 C-13 8 -13 8 -14 6 C-12.35 5.67 -10.7 5.34 -9 5 C-9 4.34 -9 3.68 -9 3 C-8.21625 2.690625 -7.4325 2.38125 -6.625 2.0625 C-1.52941176 0 -1.52941176 0 0 0 Z " fill="#241E1F" transform="translate(494,203)"/>
<path d="M0 0 C1.98 0 3.96 0 6 0 C6 1.98 6 3.96 6 6 C-0.27 6 -6.54 6 -13 6 C-13 5.67 -13 5.34 -13 5 C-11.73542969 4.92652344 -11.73542969 4.92652344 -10.4453125 4.8515625 C-9.34960938 4.77679688 -8.25390625 4.70203125 -7.125 4.625 C-5.48917969 4.52058594 -5.48917969 4.52058594 -3.8203125 4.4140625 C-0.86953526 4.26746509 -0.86953526 4.26746509 1 2 C0.67 1.34 0.34 0.68 0 0 Z " fill="#1B1818" transform="translate(419,207)"/>
<path d="M0 0 C4.91935902 4.11619836 9.52647956 8.40410362 14 13 C12.02 13.99 12.02 13.99 10 15 C8.5 13.6875 8.5 13.6875 7 12 C7 11.01 7 10.02 7 9 C5.19038423 7.37168238 5.19038423 7.37168238 3 6 C2.01 5.34 1.02 4.68 0 4 C0 2.68 0 1.36 0 0 Z " fill="#796945" transform="translate(217,32)"/>
<path d="M0 0 C3 1 3 1 4.6875 3.9375 C6 7 6 7 6 9 C2.75 9.3125 2.75 9.3125 -1 9 C-3.4375 6.5 -3.4375 6.5 -5 4 C-2.525 4.99 -2.525 4.99 0 6 C1.01111093 2.95086772 1.01111093 2.95086772 0 0 Z " fill="#1B1617" transform="translate(151,172)"/>
<path d="M0 0 C1.60246582 0.03927612 1.60246582 0.03927612 3.23730469 0.0793457 C4.97753906 0.10351562 4.97753906 0.10351562 6.75292969 0.12817383 C7.95949219 0.17006836 9.16605469 0.21196289 10.40917969 0.25512695 C12.24222656 0.28896484 12.24222656 0.28896484 14.11230469 0.32348633 C17.12916471 0.38240938 20.14355483 0.4646343 23.15917969 0.56762695 C19.79266164 2.81197232 18.9432098 2.76901598 15.05371094 2.54418945 C13.5793457 2.4668457 13.5793457 2.4668457 12.07519531 2.38793945 C11.05103516 2.32348633 10.026875 2.2590332 8.97167969 2.19262695 C7.93591797 2.1359082 6.90015625 2.07918945 5.83300781 2.02075195 C3.27436698 1.87926029 0.71670485 1.72784829 -1.84082031 1.56762695 C-2.17082031 2.55762695 -2.50082031 3.54762695 -2.84082031 4.56762695 C-4.90332031 5.25512695 -4.90332031 5.25512695 -6.84082031 5.56762695 C-3.66912327 0.73313094 -3.66912327 0.73313094 0 0 Z " fill="#796A49" transform="translate(311.8408203125,1.432373046875)"/>
<path d="M0 0 C1.98362069 2.91708924 1.9876191 4.12380904 1.625 7.75 C1.41875 8.8225 1.2125 9.895 1 11 C0.67 10.01 0.34 9.02 0 8 C-0.556875 8.309375 -1.11375 8.61875 -1.6875 8.9375 C-4.12540433 10.05761821 -6.36224186 10.56037364 -9 11 C-8.34 9.68 -7.68 8.36 -7 7 C-6.01 7 -5.02 7 -4 7 C-3.67 6.34 -3.34 5.68 -3 5 C-2.01 5.66 -1.02 6.32 0 7 C-0.185625 6.401875 -0.37125 5.80375 -0.5625 5.1875 C-1 3 -1 3 0 0 Z " fill="#181313" transform="translate(494,195)"/>
<path d="M0 0 C0.33 0.99 0.66 1.98 1 3 C0.195625 3.556875 -0.60875 4.11375 -1.4375 4.6875 C-4.24228216 7.21864487 -4.69381595 8.32579134 -5 12 C-5.99 11.67 -6.98 11.34 -8 11 C-9.32 12.32 -10.64 13.64 -12 15 C-12.66 14.67 -13.32 14.34 -14 14 C-9.38 9.38 -4.76 4.76 0 0 Z " fill="#776947" transform="translate(284,25)"/>
<path d="M0 0 C8.25 0 16.5 0 25 0 C24.01 1.65 23.02 3.3 22 5 C21.67 4.01 21.34 3.02 21 2 C19.81921875 2.02320313 18.6384375 2.04640625 17.421875 2.0703125 C15.86458967 2.08907497 14.30729748 2.10727466 12.75 2.125 C11.97269531 2.14175781 11.19539063 2.15851562 10.39453125 2.17578125 C9.64042969 2.18222656 8.88632812 2.18867187 8.109375 2.1953125 C7.41811523 2.20578613 6.72685547 2.21625977 6.01464844 2.22705078 C4 2 4 2 0 0 Z " fill="#161313" transform="translate(474,2)"/>
<path d="M0 0 C2.31 0.33 4.62 0.66 7 1 C7 2.32 7 3.64 7 5 C8.32 5.33 9.64 5.66 11 6 C10.67 7.32 10.34 8.64 10 10 C8.32756598 8.71580959 6.66218553 7.42242815 5 6.125 C3.6078125 5.04605469 3.6078125 5.04605469 2.1875 3.9453125 C1.465625 3.30335937 0.74375 2.66140625 0 2 C0 1.34 0 0.68 0 0 Z " fill="#766A42" transform="translate(197,58)"/>
<path d="M0 0 C2.27694097 3.41541146 2.16491719 5.02294075 1.54296875 8.99609375 C0.71430491 12.05439985 -0.71725372 13.84769636 -3 16 C-5.25 16.8125 -5.25 16.8125 -7 17 C-6.505 15.515 -6.505 15.515 -6 14 C-5.34 14 -4.68 14 -4 14 C-3.67 13.34 -3.34 12.68 -3 12 C-2.34 12 -1.68 12 -1 12 C-0.67 8.04 -0.34 4.08 0 0 Z " fill="#131010" transform="translate(156,195)"/>
<path d="M0 0 C0.33 0.99 0.66 1.98 1 3 C2.65 3.33 4.3 3.66 6 4 C5.67 4.66 5.34 5.32 5 6 C2.87308203 5.55065113 0.74849961 5.09023527 -1.375 4.625 C-2.55835938 4.36976563 -3.74171875 4.11453125 -4.9609375 3.8515625 C-8 3 -8 3 -10 1 C-9.36191406 1.01160156 -8.72382813 1.02320313 -8.06640625 1.03515625 C-7.24011719 1.04417969 -6.41382813 1.05320313 -5.5625 1.0625 C-4.32693359 1.07990234 -4.32693359 1.07990234 -3.06640625 1.09765625 C-1.00836062 1.23267348 -1.00836062 1.23267348 0 0 Z " fill="#191414" transform="translate(141,190)"/>
<path d="M0 0 C1.98 0.495 1.98 0.495 4 1 C4 3.31 4 5.62 4 8 C2.33333333 8 0.66666667 8 -1 8 C-1 6.35 -1 4.7 -1 3 C-0.34 2.67 0.32 2.34 1 2 C0.67 1.34 0.34 0.68 0 0 Z " fill="#251F1F" transform="translate(490,194)"/>
<path d="M0 0 C0.66 0 1.32 0 2 0 C1.1875 1.9375 1.1875 1.9375 0 4 C-0.99 4.33 -1.98 4.66 -3 5 C-4.20882096 7.00016466 -4.20882096 7.00016466 -5 9 C-5.66 8.67 -6.32 8.34 -7 8 C-6.8125 6.1875 -6.8125 6.1875 -6 4 C-3.5 2.3125 -3.5 2.3125 -1 1 C-0.67 0.67 -0.34 0.34 0 0 Z " fill="#746747" transform="translate(352,112)"/>
<path d="M0 0 C0.99 0.66 1.98 1.32 3 2 C3 2.66 3 3.32 3 4 C4.29233607 5.37310707 5.62437146 6.71034824 7 8 C6.67 8.66 6.34 9.32 6 10 C3.03 7.36 0.06 4.72 -3 2 C-2.01 1.34 -1.02 0.68 0 0 Z " fill="#766841" transform="translate(217,72)"/>
<path d="M0 0 C2.08304538 -0.05418326 4.16649768 -0.09287551 6.25 -0.125 C7.99023438 -0.15980469 7.99023438 -0.15980469 9.765625 -0.1953125 C12.82786046 -0.0103949 14.44202751 0.39176977 17 2 C15.02 2.99 15.02 2.99 13 4 C12.67 3.34 12.34 2.68 12 2 C10.046875 2.06510417 8.09375 2.13020833 6.140625 2.1953125 C3.69844025 1.97248542 2.11363229 1.20915 0 0 Z " fill="#171313" transform="translate(133,168)"/>
<path d="M0 0 C0.639375 0.268125 1.27875 0.53625 1.9375 0.8125 C5.91202261 2.35364142 9.94884495 3.67609312 14 5 C14 5.33 14 5.66 14 6 C8.03790777 5.58882123 4.68411993 4.74729595 0 1 C0 0.67 0 0.34 0 0 Z " fill="#110E0E" transform="translate(125,208)"/>
<path d="M0 0 C3.63 0.33 7.26 0.66 11 1 C11 1.66 11 2.32 11 3 C7.75 3.75 7.75 3.75 4 4 C1.5625 2.0625 1.5625 2.0625 0 0 Z M2 4 C4 5 4 5 4 5 Z " fill="#191414" transform="translate(133,206)"/>
<path d="M0 0 C0.33 0.66 0.66 1.32 1 2 C-0.65 3.98 -2.3 5.96 -4 8 C-4.99 7.67 -5.98 7.34 -7 7 C-4.69 4.69 -2.38 2.38 0 0 Z " fill="#2E241A" transform="translate(369,98)"/>
<path d="M0 0 C0.5625 1.9375 0.5625 1.9375 1 4 C0 5 0 5 -2.06640625 5.09765625 C-2.89011719 5.08605469 -3.71382812 5.07445313 -4.5625 5.0625 C-5.38878906 5.05347656 -6.21507812 5.04445313 -7.06640625 5.03515625 C-7.70449219 5.02355469 -8.34257812 5.01195313 -9 5 C-6 3 -6 3 -3.375 2.5 C-2.59125 2.335 -1.8075 2.17 -1 2 C-0.67 1.34 -0.34 0.68 0 0 Z " fill="#726647" transform="translate(184,120)"/>
<path d="M0 0 C0.33 0.99 0.66 1.98 1 3 C-1.97 5.475 -1.97 5.475 -5 8 C-5.66 7.67 -6.32 7.34 -7 7 C-4.69 4.69 -2.38 2.38 0 0 Z " fill="#796C48" transform="translate(296,14)"/>
<path d="M0 0 C0.66 0.33 1.32 0.66 2 1 C1.375 2.875 1.375 2.875 0 5 C-3.125 6.25 -3.125 6.25 -6 7 C-4.02 4.69 -2.04 2.38 0 0 Z " fill="#776A4C" transform="translate(303,7)"/>
<path d="M0 0 C2.97 0 5.94 0 9 0 C9.33 1.65 9.66 3.3 10 5 C9.278125 4.525625 8.55625 4.05125 7.8125 3.5625 C5.10524774 2.05847097 3.03805725 1.43400818 0 1 C0 0.67 0 0.34 0 0 Z " fill="#756748" transform="translate(337,2)"/>
<path d="M0 0 C3.81684226 1.55500981 6.19195732 4.03595495 9 7 C5.07353523 5.69117841 2.72225079 4.1255472 0 1 C0 0.67 0 0.34 0 0 Z " fill="#140F10" transform="translate(462,206)"/>
<path d="M0 0 C2.5654594 2.5654594 2.54046087 4.47686668 3 8 C1.68 7.34 0.36 6.68 -1 6 C-0.67 4.02 -0.34 2.04 0 0 Z " fill="#1A1615" transform="translate(279,173)"/>
<path d="M0 0 C-1.28965176 1.37562854 -2.62689293 2.70766393 -4 4 C-4.66 4 -5.32 4 -6 4 C-6 3.34 -6 2.68 -6 2 C-6.99 1.67 -7.98 1.34 -9 1 C-5.8035914 -0.06546953 -3.34252724 -0.07427838 0 0 Z " fill="#171414" transform="translate(477,168)"/>
</svg>
